# xmcd
#
# Track frame offsets:
#	150
#	18960
#	42409
#
# Disc length: 772 seconds
#
# Revision: 0
# Processed by: cddbd v1.5.1PL0 Copyright (c) Steve Scherf et al.
# Submitted via: audiograbber 1.83.01
#
DISCID=1b030203
DTITLE=Elin Sigvardsson - Song for Anna
DYEAR=1900
DGENRE=
TTITLE0=Song for Anna
TTITLE1=Song for Anna (home recording)
TTITLE2=Love me without heart
EXTD=
EXTT0=
EXTT1=
EXTT2=
PLAYORDER=
